<svg xmlns="http://www.w3.org/2000/svg" xmlns:xlink="http://www.w3.org/1999/xlink" width="250" zoomAndPan="magnify" viewBox="0 0 187.5 149.999998" height="200" preserveAspectRatio="xMidYMid meet" version="1.0"><defs><g/><clipPath id="1aa6f0e327"><path d="M 94.953125 64.402344 L 107.707031 64.402344 L 107.707031 77.152344 L 94.953125 77.152344 Z M 94.953125 64.402344 " clip-rule="nonzero"/></clipPath><clipPath id="74d0a5b856"><path d="M 8 51.269531 L 75 51.269531 L 75 90.164062 L 8 90.164062 Z M 8 51.269531 " clip-rule="nonzero"/></clipPath></defs><g fill="#e4e4e7" fill-opacity="1"><g transform="translate(73.062505, 76.960977)"><g><path d="M 11.554688 0.574219 C 17.605469 0.574219 21.589844 -1.84375 21.5625 -5.378906 C 21.5625 -8.417969 19.148438 -10.011719 13.496094 -10.65625 L 9.785156 -11.128906 C 7.246094 -11.429688 6.152344 -11.976562 6.175781 -12.921875 C 6.175781 -14.21875 8.191406 -15.066406 11.007812 -15.089844 C 13.917969 -15.089844 16.785156 -14.070312 18.453125 -12.550781 L 20.167969 -15.414062 C 18.253906 -17.15625 14.792969 -18.300781 10.980469 -18.300781 C 5.230469 -18.300781 1.292969 -16.1875 1.269531 -12.574219 C 1.269531 -9.636719 3.484375 -8.144531 8.617188 -7.546875 L 12.351562 -7.046875 C 15.390625 -6.671875 16.683594 -6 16.683594 -4.957031 C 16.683594 -3.660156 14.765625 -2.789062 11.804688 -2.789062 C 8.042969 -2.789062 4.207031 -4.257812 2.515625 -6.324219 L 0.496094 -3.386719 C 2.515625 -1.070312 6.972656 0.574219 11.554688 0.574219 Z M 11.554688 0.574219 "/></g></g></g><g fill="#e4e4e7" fill-opacity="1"><g transform="translate(94.925468, 76.960977)"><g/></g></g><g fill="#e4e4e7" fill-opacity="1"><g transform="translate(101.249682, 76.960977)"><g/></g></g><g fill="#e4e4e7" fill-opacity="1"><g transform="translate(107.576626, 76.960977)"><g><path d="M 12.476562 -13.199219 C 9.164062 -13.199219 6.625 -11.804688 5.453125 -9.585938 L 5.429688 -9.585938 L 4.957031 -12.75 L 0.996094 -12.75 L 0.996094 0 L 5.527344 0 L 5.527344 -5.777344 C 5.527344 -8.691406 7.421875 -10.410156 10.558594 -10.410156 C 13.199219 -10.410156 14.714844 -9.015625 14.714844 -6.648438 L 14.714844 0 L 19.273438 0 L 19.273438 -7.121094 C 19.296875 -10.882812 16.660156 -13.199219 12.476562 -13.199219 Z M 12.476562 -13.199219 "/></g></g></g><g fill="#e4e4e7" fill-opacity="1"><g transform="translate(127.470564, 76.960977)"><g><path d="M 7.023438 0.449219 C 10.683594 0.449219 13.695312 -0.871094 14.941406 -2.863281 L 14.964844 -2.863281 L 14.992188 -2.539062 C 15.191406 -0.695312 16.785156 0.449219 19.25 0.449219 C 20.992188 0.449219 22.558594 -0.0742188 23.332031 -0.894531 L 22.285156 -3.039062 C 21.914062 -2.640625 21.316406 -2.367188 20.71875 -2.367188 C 19.921875 -2.367188 19.449219 -2.839844 19.449219 -3.5625 L 19.449219 -8.367188 C 19.449219 -11.453125 15.789062 -13.199219 10.65625 -13.199219 C 6.722656 -13.199219 2.765625 -12.003906 0.648438 -10.234375 L 2.015625 -7.792969 C 4.058594 -9.386719 7.496094 -10.457031 10.683594 -10.457031 C 13.222656 -10.457031 14.992188 -9.734375 14.992188 -8.816406 C 14.992188 -8.464844 14.640625 -8.242188 14.09375 -8.191406 L 8.640625 -7.71875 C 3.363281 -7.246094 0.496094 -5.601562 0.496094 -3.136719 C 0.496094 -0.820312 2.886719 0.449219 7.023438 0.449219 Z M 8.464844 -2.414062 C 6.226562 -2.414062 5.054688 -2.914062 5.054688 -3.835938 C 5.054688 -4.730469 6.375 -5.277344 8.964844 -5.476562 L 14.914062 -5.976562 L 14.914062 -5.652344 C 14.914062 -3.808594 12.25 -2.414062 8.464844 -2.414062 Z M 8.464844 -2.414062 "/></g></g></g><g clip-path="url(#1aa6f0e327)"><path fill="#ffffff" d="M 107.773438 70.8125 C 107.773438 74.351562 104.902344 77.222656 101.363281 77.222656 C 97.824219 77.222656 94.953125 74.351562 94.953125 70.8125 C 94.953125 67.273438 97.824219 64.402344 101.363281 64.402344 C 104.902344 64.402344 107.773438 67.273438 107.773438 70.8125 Z M 107.773438 70.8125 " fill-opacity="1" fill-rule="evenodd"/></g><path fill="#450a0a" d="M 104.570312 70.8125 C 104.570312 72.582031 103.132812 74.015625 101.363281 74.015625 C 99.59375 74.015625 98.160156 72.582031 98.160156 70.8125 C 98.160156 69.042969 99.59375 67.609375 101.363281 67.609375 C 103.132812 67.609375 104.570312 69.042969 104.570312 70.8125 Z M 104.570312 70.8125 " fill-opacity="1" fill-rule="evenodd"/><g clip-path="url(#74d0a5b856)"><path fill="#450a0a" d="M 74.46875 87.246094 C 72.140625 87.226562 69.8125 87.203125 67.480469 87.179688 C 67.023438 87.175781 66.566406 87.167969 66.105469 87.164062 C 65.785156 86.84375 65.230469 86.78125 64.777344 86.828125 C 64.425781 86.867188 64.074219 86.921875 63.722656 86.988281 C 63.667969 86.6875 63.410156 86.476562 63.125 86.351562 C 62.355469 86.019531 61.472656 85.96875 60.65625 86.144531 C 59.894531 86.304688 58.960938 86.71875 58.515625 87.390625 C 58.4375 87.503906 58.390625 87.632812 58.367188 87.765625 C 58.253906 87.695312 58.144531 87.625 58.03125 87.554688 C 57.644531 87.320312 57.214844 87.222656 56.765625 87.214844 C 56.300781 87.207031 55.828125 87.28125 55.363281 87.328125 C 54.855469 87.382812 54.347656 87.4375 53.839844 87.492188 C 52.804688 87.605469 51.769531 87.714844 50.734375 87.808594 C 48.851562 87.972656 46.96875 88.058594 45.078125 88.078125 C 45.070312 87.746094 45.0625 87.410156 45.054688 87.078125 C 45.144531 87.121094 45.25 87.148438 45.363281 87.164062 C 45.820312 87.222656 46.289062 87.199219 46.75 87.203125 C 47.246094 87.207031 47.746094 87.207031 48.246094 87.203125 C 50.179688 87.179688 52.105469 87.078125 54.03125 86.902344 C 55.964844 86.726562 57.894531 86.472656 59.808594 86.140625 C 60.191406 86.074219 60.609375 86.058594 60.910156 85.777344 C 61.136719 85.566406 61.234375 85.203125 60.964844 84.980469 C 60.808594 84.851562 60.597656 84.878906 60.40625 84.878906 C 60.472656 84.816406 60.511719 84.726562 60.511719 84.644531 C 60.476562 83.191406 60.347656 81.746094 60.128906 80.3125 C 60.210938 80.234375 60.246094 80.105469 60.226562 79.988281 C 60.085938 79.199219 59.945312 78.414062 59.804688 77.625 C 60.484375 77.621094 61.164062 77.605469 61.84375 77.578125 C 62.457031 77.582031 63.070312 77.585938 63.683594 77.585938 C 63.777344 77.585938 63.894531 77.527344 63.953125 77.4375 C 64.070312 77.429688 64.1875 77.417969 64.304688 77.40625 C 64.503906 77.386719 64.660156 77.222656 64.605469 77.011719 C 64.429688 76.34375 64.375 75.664062 64.433594 74.976562 C 64.445312 74.804688 64.277344 74.667969 64.117188 74.664062 C 62.910156 74.628906 61.703125 74.589844 60.496094 74.554688 C 60.488281 73.675781 60.414062 72.792969 60.273438 71.917969 C 60.335938 71.859375 60.390625 71.796875 60.4375 71.730469 C 62.207031 71.714844 63.972656 71.5625 65.699219 71.1875 C 65.769531 71.308594 65.839844 71.429688 65.921875 71.539062 C 66.101562 71.796875 66.398438 72.050781 66.738281 71.96875 C 67.101562 71.882812 67.183594 71.46875 67.152344 71.152344 C 67.144531 71.097656 67.136719 71.042969 67.125 70.988281 C 67.472656 71.019531 67.808594 70.851562 67.839844 70.4375 C 67.867188 70.03125 67.597656 69.632812 67.234375 69.46875 C 67.25 69.300781 67.148438 69.125 66.933594 69.121094 C 63.125 69.070312 59.355469 68.519531 55.597656 67.941406 C 55.503906 67.929688 55.40625 67.914062 55.3125 67.898438 C 55.390625 67.867188 55.457031 67.804688 55.476562 67.699219 C 55.617188 66.921875 55.730469 65.96875 55.265625 65.273438 C 54.996094 64.871094 54.582031 64.660156 54.113281 64.566406 C 53.539062 64.453125 52.957031 64.367188 52.375 64.28125 C 52.042969 64.230469 51.707031 64.183594 51.375 64.136719 C 51.375 64.089844 51.371094 64.042969 51.371094 63.992188 C 51.367188 63.960938 51.363281 63.925781 51.351562 63.898438 C 51.414062 63.269531 51.476562 62.644531 51.535156 62.015625 C 52.722656 62.007812 53.910156 61.933594 55.082031 61.757812 C 55.097656 61.769531 55.113281 61.78125 55.128906 61.792969 C 55.210938 61.855469 55.359375 61.84375 55.445312 61.792969 C 55.5 61.757812 55.546875 61.714844 55.59375 61.671875 C 56.582031 61.496094 57.554688 61.238281 58.5 60.878906 C 58.507812 60.964844 58.523438 61.046875 58.546875 61.125 C 58.589844 61.265625 58.664062 61.394531 58.777344 61.488281 C 58.917969 61.609375 59.164062 61.703125 59.339844 61.601562 C 59.929688 61.253906 59.796875 60.269531 59.230469 59.976562 C 59.148438 59.933594 59.0625 59.933594 58.992188 59.953125 C 58.972656 59.945312 58.949219 59.9375 58.925781 59.933594 C 54.039062 58.878906 49.230469 57.464844 44.558594 55.695312 C 43.96875 55.472656 43.382812 55.242188 42.800781 55.011719 C 42.386719 54.84375 41.960938 54.632812 41.515625 54.546875 C 41.53125 54.335938 41.527344 54.121094 41.503906 53.90625 C 41.527344 53.863281 41.539062 53.8125 41.546875 53.761719 C 41.632812 53.042969 41.714844 52.324219 41.796875 51.609375 C 41.824219 51.394531 41.578125 51.265625 41.402344 51.304688 C 40.6875 51.472656 40.5 52.285156 40.617188 52.910156 C 40.6875 53.296875 40.859375 53.664062 40.894531 54.058594 C 40.910156 54.214844 40.90625 54.371094 40.898438 54.527344 C 40.371094 54.597656 39.890625 54.859375 39.421875 55.089844 C 38.871094 55.359375 38.316406 55.617188 37.757812 55.867188 C 35.539062 56.867188 33.265625 57.738281 30.945312 58.476562 C 28.347656 59.304688 25.695312 59.964844 23.011719 60.457031 C 22.777344 60.5 22.707031 60.855469 22.882812 61 C 22.847656 61.050781 22.816406 61.109375 22.792969 61.171875 C 22.601562 61.695312 23.101562 62.304688 23.644531 62.015625 C 23.863281 61.902344 24.003906 61.710938 24.074219 61.492188 C 24.257812 61.5625 24.445312 61.625 24.632812 61.683594 C 24.585938 61.839844 24.636719 62.011719 24.84375 62.042969 C 25.628906 62.171875 26.421875 62.265625 27.214844 62.332031 C 27.210938 62.417969 27.214844 62.503906 27.238281 62.585938 C 27.324219 62.875 27.636719 62.980469 27.898438 62.863281 C 28.097656 62.777344 28.261719 62.613281 28.386719 62.421875 C 28.792969 62.449219 29.199219 62.464844 29.605469 62.464844 C 29.90625 62.464844 30.203125 62.449219 30.503906 62.433594 C 30.53125 63.128906 30.667969 63.886719 30.59375 64.585938 C 30.554688 64.59375 30.511719 64.601562 30.46875 64.605469 C 29.5 64.738281 28.53125 64.875 27.558594 65.011719 C 27.453125 65.023438 27.367188 65.132812 27.339844 65.230469 C 27.214844 65.660156 27.234375 66.109375 27.246094 66.554688 C 27.257812 66.9375 27.292969 67.40625 27.03125 67.722656 C 26.71875 68.09375 26.054688 68.183594 25.617188 68.316406 C 25.050781 68.484375 24.484375 68.648438 23.914062 68.800781 C 22.773438 69.109375 21.625 69.390625 20.472656 69.640625 C 19.894531 69.761719 19.316406 69.878906 18.734375 69.988281 C 18.214844 70.085938 17.648438 70.128906 17.144531 70.296875 C 17.117188 70.304688 17.089844 70.3125 17.0625 70.324219 C 16.679688 70.386719 16.296875 70.449219 15.910156 70.503906 C 15.625 70.546875 15.636719 70.945312 15.835938 71.078125 C 16.023438 71.203125 16.207031 71.324219 16.390625 71.445312 C 16.304688 71.53125 16.28125 71.664062 16.328125 71.785156 C 16.175781 72.21875 16.160156 72.695312 16.292969 73.144531 C 16.355469 73.355469 16.65625 73.464844 16.816406 73.28125 C 17.140625 72.910156 17.238281 72.414062 17.109375 71.96875 C 17.359375 71.960938 17.613281 71.957031 17.863281 71.957031 C 18.628906 72.085938 19.398438 72.183594 20.167969 72.25 C 20.214844 72.667969 20.449219 73.058594 20.804688 73.296875 C 20.953125 73.394531 21.144531 73.320312 21.234375 73.183594 C 21.40625 72.929688 21.433594 72.613281 21.355469 72.328125 C 22.035156 72.359375 22.71875 72.359375 23.398438 72.339844 C 23.367188 73.363281 23.332031 74.386719 23.296875 75.410156 C 23.058594 75.429688 22.816406 75.449219 22.578125 75.464844 C 21.601562 75.488281 20.628906 75.507812 19.652344 75.519531 C 19.527344 75.519531 19.414062 75.601562 19.363281 75.710938 C 19.351562 75.734375 19.335938 75.757812 19.328125 75.78125 C 19.21875 76.039062 19.261719 76.273438 19.386719 76.46875 C 19.460938 77.027344 19.613281 77.566406 19.847656 78.089844 C 19.890625 78.179688 20.023438 78.257812 20.121094 78.246094 C 20.222656 78.230469 20.320312 78.21875 20.421875 78.207031 C 21.363281 78.1875 22.300781 78.171875 23.238281 78.152344 C 23.246094 78.308594 23.253906 78.460938 23.265625 78.617188 C 23.0625 78.488281 22.789062 78.441406 22.558594 78.421875 C 22.179688 78.390625 21.792969 78.472656 21.441406 78.613281 C 20.667969 78.921875 20.078125 79.472656 19.496094 80.050781 C 18.914062 80.621094 18.3125 81.207031 17.484375 81.367188 C 17.136719 81.433594 17.21875 81.992188 17.570312 81.980469 C 17.992188 81.96875 18.417969 81.964844 18.839844 81.96875 C 18.972656 82.820312 19.101562 83.679688 19.230469 84.53125 C 19.207031 85.542969 19.066406 86.550781 18.816406 87.535156 C 18.808594 87.558594 18.808594 87.582031 18.808594 87.605469 C 15.792969 87.726562 12.800781 88.300781 9.777344 88.257812 C 9.316406 88.25 8.855469 88.226562 8.398438 88.191406 C 7.996094 88.15625 7.996094 88.785156 8.398438 88.816406 C 12.144531 89.125 15.847656 88.257812 19.589844 88.214844 C 21.480469 88.191406 23.324219 88.484375 25.175781 88.84375 C 27.03125 89.203125 28.890625 89.523438 30.769531 89.75 C 34.515625 90.199219 38.296875 90.34375 42.070312 90.277344 C 45.867188 90.210938 49.65625 89.933594 53.429688 89.550781 C 55.476562 89.34375 57.519531 89.101562 59.558594 88.84375 C 59.800781 88.863281 60.046875 88.859375 60.289062 88.832031 C 60.644531 88.789062 60.992188 88.714844 61.335938 88.617188 C 62.46875 88.46875 63.601562 88.320312 64.734375 88.167969 C 65.195312 88.105469 65.660156 88.042969 66.121094 87.976562 C 66.21875 87.964844 66.289062 87.886719 66.324219 87.796875 C 68.378906 87.816406 70.433594 87.839844 72.488281 87.859375 C 73.148438 87.867188 73.808594 87.871094 74.464844 87.878906 C 74.875 87.878906 74.875 87.25 74.46875 87.246094 Z M 59.058594 87.707031 C 59.277344 87.382812 59.726562 87.144531 60.074219 86.988281 C 60.804688 86.65625 61.652344 86.578125 62.429688 86.777344 C 62.605469 86.820312 62.792969 86.871094 62.953125 86.960938 C 63.050781 87.015625 63.089844 87.066406 63.085938 87.117188 C 62.6875 87.207031 62.292969 87.304688 61.902344 87.40625 C 61.425781 87.535156 60.949219 87.675781 60.480469 87.832031 C 60.128906 87.949219 59.777344 88.105469 59.402344 88.105469 C 59.132812 88.105469 58.847656 88.019531 59.058594 87.707031 Z M 32.324219 67.9375 C 35.019531 67.503906 37.75 67.226562 40.488281 67.269531 C 41.085938 67.28125 41.730469 67.253906 42.3125 67.414062 C 42.507812 67.589844 42.714844 67.753906 42.925781 67.902344 C 43.054688 67.992188 43.183594 68.074219 43.320312 68.152344 C 43.335938 68.183594 43.359375 68.214844 43.375 68.246094 C 43.09375 68.242188 42.8125 68.25 42.523438 68.273438 C 40.929688 68.421875 39.34375 68.734375 37.765625 69.011719 C 35.429688 69.417969 33.097656 69.863281 30.757812 70.253906 C 30.683594 70.160156 30.566406 70.109375 30.433594 70.144531 C 29.773438 70.3125 29.109375 70.46875 28.445312 70.617188 C 28.335938 70.632812 28.222656 70.648438 28.113281 70.664062 C 27.066406 70.8125 26.015625 70.941406 24.964844 71.046875 C 24.945312 71.042969 24.929688 71.042969 24.910156 71.042969 C 24.777344 71.058594 24.648438 71.074219 24.515625 71.089844 C 22.09375 71.308594 19.660156 71.378906 17.230469 71.203125 C 17.210938 71.203125 17.195312 71.203125 17.179688 71.207031 C 17.121094 71.167969 17.0625 71.128906 17.007812 71.09375 C 17.046875 71.015625 17.136719 70.964844 17.230469 70.925781 C 22.289062 70.089844 27.253906 68.75 32.324219 67.9375 Z M 31.125 65.136719 C 31.742188 65.050781 32.359375 64.964844 32.976562 64.878906 C 32.96875 65.21875 32.996094 65.558594 33.070312 65.894531 C 32.242188 66.015625 31.414062 66.128906 30.585938 66.226562 C 30.613281 66.195312 30.644531 66.160156 30.671875 66.125 C 30.90625 65.816406 31.042969 65.484375 31.125 65.136719 Z M 33.746094 65.792969 C 33.742188 65.792969 33.738281 65.792969 33.734375 65.792969 C 33.734375 65.753906 33.730469 65.710938 33.730469 65.671875 C 33.726562 65.574219 33.6875 65.503906 33.628906 65.453125 C 33.601562 65.234375 33.589844 65.011719 33.601562 64.792969 C 34.074219 64.726562 34.542969 64.660156 35.015625 64.597656 C 35.042969 65.019531 35.039062 65.390625 35.03125 65.503906 C 35.03125 65.539062 35.035156 65.570312 35.046875 65.601562 C 34.613281 65.664062 34.179688 65.726562 33.746094 65.792969 Z M 33.6875 64.152344 C 33.777344 63.734375 33.933594 63.238281 34.296875 63.019531 C 34.675781 62.796875 34.863281 63.339844 34.953125 63.976562 C 34.53125 64.035156 34.109375 64.09375 33.6875 64.152344 Z M 36.984375 64.320312 C 36.984375 64.628906 37.007812 64.9375 37.054688 65.242188 C 36.59375 65.226562 36.128906 65.214844 35.664062 65.199219 C 35.667969 64.96875 35.664062 64.738281 35.644531 64.507812 C 36.089844 64.445312 36.539062 64.382812 36.984375 64.320312 Z M 37.695312 65.246094 C 37.636719 64.914062 37.609375 64.574219 37.613281 64.234375 C 37.695312 64.222656 37.777344 64.210938 37.863281 64.199219 C 38.113281 64.164062 38.367188 64.128906 38.621094 64.09375 C 38.695312 64.441406 38.734375 64.789062 38.738281 65.144531 C 38.390625 65.175781 38.042969 65.210938 37.695312 65.246094 Z M 37.652344 63.601562 C 37.667969 63.46875 37.691406 63.335938 37.726562 63.207031 C 37.757812 63.09375 37.816406 62.9375 37.945312 62.929688 C 38.070312 62.917969 38.207031 63.074219 38.28125 63.171875 C 38.355469 63.269531 38.40625 63.378906 38.449219 63.488281 C 38.183594 63.527344 37.917969 63.5625 37.652344 63.601562 Z M 30.773438 61.78125 C 30.699219 61.785156 30.625 61.785156 30.550781 61.789062 C 30.511719 61.769531 30.46875 61.757812 30.421875 61.761719 C 29.828125 61.8125 29.238281 61.800781 28.652344 61.726562 C 28.660156 61.671875 28.664062 61.617188 28.667969 61.5625 C 29.589844 61.410156 30.511719 61.234375 31.429688 61.03125 C 32 60.9375 32.570312 60.832031 33.136719 60.714844 C 33.109375 60.96875 33.152344 61.234375 33.261719 61.464844 C 32.4375 61.601562 31.609375 61.71875 30.773438 61.78125 Z M 49.035156 64.488281 C 49.054688 64.710938 49.054688 64.9375 49.039062 65.15625 C 49.027344 65.328125 48.980469 65.515625 48.96875 65.699219 C 48.828125 65.683594 48.683594 65.664062 48.542969 65.648438 C 48.542969 65.632812 48.539062 65.617188 48.535156 65.605469 C 48.429688 65.230469 48.375 64.828125 48.394531 64.429688 C 48.605469 64.449219 48.820312 64.46875 49.035156 64.488281 Z M 48.480469 63.8125 C 48.492188 63.761719 48.503906 63.714844 48.515625 63.664062 C 48.546875 63.566406 48.65625 63.308594 48.757812 63.386719 C 48.824219 63.4375 48.855469 63.550781 48.875 63.628906 C 48.898438 63.703125 48.917969 63.777344 48.9375 63.851562 C 48.785156 63.835938 48.632812 63.824219 48.480469 63.8125 Z M 50.671875 64.671875 C 50.757812 65.09375 50.449219 65.527344 50.066406 65.6875 C 49.984375 65.722656 49.894531 65.746094 49.808594 65.753906 C 49.753906 65.757812 49.703125 65.757812 49.648438 65.753906 C 49.644531 65.75 49.621094 65.746094 49.597656 65.738281 C 49.625 65.652344 49.636719 65.464844 49.648438 65.375 C 49.667969 65.199219 49.679688 65.023438 49.679688 64.847656 C 49.679688 64.75 49.671875 64.652344 49.667969 64.554688 C 50 64.589844 50.335938 64.628906 50.671875 64.671875 Z M 47.847656 65.4375 C 47.671875 65.460938 47.496094 65.484375 47.316406 65.496094 C 46.964844 65.453125 46.617188 65.410156 46.265625 65.367188 C 46.296875 65.007812 46.324219 64.644531 46.351562 64.285156 C 46.816406 64.308594 47.285156 64.339844 47.75 64.375 C 47.753906 64.375 47.757812 64.375 47.761719 64.378906 C 47.746094 64.730469 47.777344 65.09375 47.847656 65.4375 Z M 45.726562 64.253906 C 45.703125 64.601562 45.675781 64.949219 45.644531 65.296875 C 45.316406 65.257812 44.988281 65.222656 44.660156 65.191406 C 44.667969 65.167969 44.671875 65.148438 44.671875 65.128906 C 44.695312 64.835938 44.65625 64.523438 44.660156 64.214844 C 45.015625 64.226562 45.371094 64.238281 45.726562 64.253906 Z M 44.753906 63.589844 C 44.757812 63.578125 44.757812 63.570312 44.765625 63.558594 C 44.867188 63.300781 45.222656 62.910156 45.519531 63.132812 C 45.664062 63.238281 45.71875 63.429688 45.738281 63.628906 C 45.515625 63.617188 45.292969 63.605469 45.074219 63.597656 C 44.964844 63.59375 44.859375 63.59375 44.753906 63.589844 Z M 44.054688 64.800781 C 43.167969 64.757812 42.28125 64.761719 41.394531 64.804688 C 41.394531 64.703125 41.390625 64.601562 41.386719 64.503906 C 41.382812 64.40625 41.378906 64.304688 41.375 64.207031 C 42.265625 64.1875 43.152344 64.1875 44.042969 64.203125 C 44.042969 64.398438 44.054688 64.601562 44.054688 64.800781 Z M 38.230469 59.292969 C 38.230469 59.292969 38.234375 59.289062 38.238281 59.28125 C 38.242188 59.289062 38.238281 59.292969 38.230469 59.292969 Z M 38.269531 59.253906 C 38.269531 59.25 38.265625 59.246094 38.265625 59.246094 C 38.265625 59.246094 38.269531 59.246094 38.269531 59.253906 Z M 51.289062 60.59375 C 52.429688 60.679688 53.570312 60.785156 54.707031 60.914062 C 54.703125 60.953125 54.703125 60.992188 54.707031 61.03125 C 53.570312 61.230469 52.414062 61.339844 51.257812 61.363281 C 51.21875 61.363281 51.1875 61.371094 51.15625 61.382812 C 51.140625 61.382812 51.128906 61.382812 51.113281 61.382812 C 51.257812 61.136719 51.3125 60.863281 51.289062 60.59375 Z M 34.296875 60.78125 C 34.265625 60.636719 34.203125 60.496094 34.117188 60.371094 C 35.285156 60.046875 36.445312 59.683594 37.589844 59.28125 C 37.628906 59.433594 37.695312 59.578125 37.820312 59.6875 C 38.054688 59.898438 38.4375 59.953125 38.683594 59.722656 C 38.902344 59.515625 38.902344 59.167969 38.746094 58.921875 C 39.34375 58.765625 39.9375 58.613281 40.53125 58.457031 C 40.53125 58.464844 40.53125 58.476562 40.53125 58.484375 C 40.511719 58.699219 40.515625 58.910156 40.550781 59.125 C 40.5625 59.472656 40.578125 59.824219 40.59375 60.175781 C 40.597656 60.355469 40.605469 60.53125 40.613281 60.710938 C 39.703125 60.695312 38.789062 60.714844 37.878906 60.785156 C 36.675781 60.878906 35.484375 61.085938 34.292969 61.289062 C 34.332031 61.128906 34.332031 60.957031 34.296875 60.78125 Z M 41.203125 59.867188 C 41.21875 59.855469 41.230469 59.847656 41.238281 59.839844 C 41.515625 59.542969 41.628906 59.121094 41.5625 58.726562 C 42.5625 59.019531 43.5625 59.3125 44.566406 59.605469 C 44.492188 60.003906 44.601562 60.417969 44.886719 60.734375 C 45.023438 60.890625 45.277344 60.832031 45.378906 60.671875 C 45.496094 60.484375 45.542969 60.273438 45.53125 60.070312 C 47.070312 60.363281 48.632812 60.507812 50.203125 60.503906 C 50.179688 60.808594 50.265625 61.117188 50.457031 61.367188 C 48.679688 61.324219 46.902344 61.15625 45.15625 61 C 43.855469 60.882812 42.546875 60.777344 41.242188 60.730469 C 41.230469 60.441406 41.21875 60.152344 41.203125 59.867188 Z M 50.910156 62.007812 C 50.84375 62.6875 50.777344 63.367188 50.707031 64.046875 C 50.335938 64 49.960938 63.957031 49.589844 63.917969 C 49.582031 63.871094 49.574219 63.828125 49.5625 63.78125 C 49.503906 63.5 49.429688 63.191406 49.230469 62.972656 C 49.027344 62.746094 48.707031 62.671875 48.429688 62.804688 C 48.167969 62.933594 48.007812 63.210938 47.921875 63.472656 C 47.890625 63.566406 47.863281 63.660156 47.84375 63.753906 C 47.351562 63.714844 46.859375 63.683594 46.367188 63.65625 C 46.351562 63.40625 46.296875 63.160156 46.175781 62.945312 C 45.964844 62.566406 45.527344 62.367188 45.101562 62.46875 C 44.660156 62.578125 44.324219 62.957031 44.167969 63.367188 C 44.144531 63.433594 44.121094 63.5 44.105469 63.570312 C 43.191406 63.554688 42.269531 63.558594 41.355469 63.578125 C 41.351562 63.480469 41.347656 63.382812 41.34375 63.289062 C 41.316406 62.644531 41.292969 62.003906 41.265625 61.359375 C 44.480469 61.480469 47.691406 61.964844 50.910156 62.007812 Z M 40.410156 63.84375 C 40.445312 64.183594 40.480469 64.523438 40.515625 64.863281 C 40.128906 64.894531 39.746094 64.9375 39.359375 64.984375 C 39.347656 64.65625 39.304688 64.328125 39.238281 64.007812 C 39.628906 63.953125 40.019531 63.898438 40.410156 63.84375 Z M 67.214844 70.371094 C 67.203125 70.371094 67.191406 70.371094 67.175781 70.371094 C 67.167969 70.371094 67.15625 70.367188 67.144531 70.363281 C 67.09375 70.292969 67.015625 70.246094 66.90625 70.246094 C 66.886719 70.246094 66.867188 70.246094 66.847656 70.242188 C 66.804688 70.222656 66.761719 70.203125 66.71875 70.179688 C 66.683594 70.136719 66.644531 70.097656 66.605469 70.0625 C 66.707031 70 66.828125 69.972656 66.949219 70.019531 C 67.042969 70.054688 67.125 70.132812 67.171875 70.226562 C 67.1875 70.257812 67.199219 70.289062 67.207031 70.324219 C 67.214844 70.339844 67.214844 70.355469 67.214844 70.371094 Z M 63.429688 76.851562 C 62.902344 76.890625 62.378906 76.921875 61.851562 76.945312 C 61.394531 76.941406 60.941406 76.929688 60.488281 76.921875 C 60.53125 76.722656 60.503906 76.511719 60.421875 76.320312 C 60.425781 76.273438 60.433594 76.230469 60.4375 76.183594 C 60.828125 76.316406 61.339844 76.222656 61.710938 76.210938 C 62.316406 76.191406 62.921875 76.171875 63.527344 76.152344 C 63.496094 76.386719 63.460938 76.617188 63.429688 76.851562 Z M 46.347656 85.207031 C 46.136719 85.222656 45.929688 85.238281 45.71875 85.25 C 45.546875 85.234375 45.390625 85.191406 45.292969 85.089844 C 45.222656 85.019531 45.171875 84.925781 45.132812 84.824219 C 45.125 84.746094 45.117188 84.671875 45.113281 84.597656 C 45.105469 84.511719 45.070312 84.425781 45.007812 84.363281 C 44.988281 84.265625 44.96875 84.171875 44.953125 84.085938 C 44.855469 83.675781 44.773438 83.261719 44.703125 82.847656 C 44.667969 82.628906 44.632812 82.410156 44.605469 82.195312 C 44.605469 81.539062 44.574219 80.886719 44.507812 80.238281 C 47.058594 80.171875 49.613281 80.152344 52.164062 80.175781 C 52.257812 81.742188 52.40625 83.300781 52.609375 84.855469 C 52.332031 84.886719 52.058594 84.917969 51.777344 84.945312 C 49.96875 85.003906 48.15625 85.089844 46.347656 85.207031 Z M 20.125 77 C 20.746094 77.214844 21.425781 77.125 22.070312 77.105469 C 22.453125 77.09375 22.835938 77.082031 23.21875 77.066406 C 23.222656 77.144531 23.226562 77.222656 23.226562 77.300781 C 22.347656 77.363281 21.472656 77.445312 20.597656 77.554688 C 20.5 77.558594 20.40625 77.566406 20.3125 77.570312 C 20.234375 77.382812 20.175781 77.191406 20.125 77 Z M 59.585938 70.707031 C 59.566406 70.839844 59.5625 70.972656 59.574219 71.105469 C 57.628906 71.082031 55.679688 70.914062 53.738281 70.746094 C 53.722656 70.691406 53.707031 70.636719 53.683594 70.585938 C 54.828125 70.585938 55.972656 70.585938 57.113281 70.589844 C 57.9375 70.636719 58.761719 70.675781 59.585938 70.707031 Z M 59.726562 71.789062 C 59.679688 71.839844 59.652344 71.910156 59.65625 71.992188 C 59.703125 72.703125 59.746094 73.414062 59.792969 74.125 C 59.800781 74.261719 59.808594 74.398438 59.820312 74.535156 C 58.675781 74.5 57.535156 74.464844 56.394531 74.429688 C 56.402344 74.019531 56.410156 73.609375 56.417969 73.203125 C 56.425781 72.808594 56.472656 72.394531 56.414062 72.003906 C 56.382812 71.820312 56.316406 71.683594 56.226562 71.570312 C 56.707031 71.605469 57.191406 71.640625 57.671875 71.664062 C 58.347656 71.699219 59.023438 71.722656 59.703125 71.730469 C 59.710938 71.75 59.71875 71.769531 59.726562 71.789062 Z M 59.859375 75.191406 C 59.863281 75.226562 59.863281 75.257812 59.867188 75.292969 C 59.863281 75.441406 59.859375 75.585938 59.847656 75.734375 C 59.582031 75.613281 59.277344 75.574219 58.988281 75.5625 C 58.566406 75.546875 58.144531 75.550781 57.71875 75.546875 C 57.273438 75.539062 56.824219 75.535156 56.375 75.527344 C 56.375 75.371094 56.378906 75.214844 56.382812 75.058594 C 57.472656 75.089844 58.566406 75.121094 59.65625 75.15625 C 59.722656 75.15625 59.792969 75.160156 59.859375 75.160156 C 59.859375 75.171875 59.859375 75.179688 59.859375 75.191406 Z M 36.988281 76.710938 C 36.660156 76.679688 36.363281 76.589844 36.175781 76.371094 C 36.730469 76.328125 37.285156 76.289062 37.839844 76.246094 C 38.160156 76.21875 38.476562 76.191406 38.796875 76.164062 C 38.804688 76.335938 38.816406 76.507812 38.824219 76.679688 C 38.265625 76.691406 37.703125 76.707031 37.144531 76.726562 C 37.089844 76.71875 37.039062 76.71875 36.988281 76.710938 Z M 26.710938 77.144531 C 26.277344 77.152344 25.84375 77.167969 25.414062 77.183594 C 24.898438 77.203125 24.382812 77.226562 23.867188 77.257812 C 23.867188 77.1875 23.871094 77.113281 23.871094 77.042969 C 24.816406 77.007812 25.761719 76.972656 26.703125 76.929688 C 26.707031 77.003906 26.710938 77.074219 26.710938 77.144531 Z M 27.332031 74.203125 C 27.332031 73.964844 27.308594 73.714844 27.335938 73.476562 C 27.363281 73.257812 27.457031 73.171875 27.671875 73.132812 C 28.144531 73.046875 28.644531 73.039062 29.125 72.996094 C 31.117188 72.816406 33.105469 72.632812 35.09375 72.453125 C 35.132812 73.035156 35.175781 73.613281 35.214844 74.195312 C 35.226562 74.371094 35.238281 74.546875 35.246094 74.71875 C 32.613281 74.960938 29.976562 75.148438 27.335938 75.28125 C 27.335938 74.921875 27.332031 74.5625 27.332031 74.203125 Z M 55.789062 73.304688 C 55.78125 73.671875 55.773438 74.042969 55.769531 74.410156 C 54.746094 74.378906 53.726562 74.347656 52.703125 74.320312 C 52.703125 74.25 52.703125 74.179688 52.703125 74.109375 C 52.703125 73.621094 52.691406 73.128906 52.671875 72.640625 C 52.65625 72.277344 52.664062 71.886719 52.523438 71.542969 C 52.601562 71.550781 52.679688 71.558594 52.753906 71.566406 C 52.839844 71.714844 52.960938 71.84375 53.117188 71.9375 C 53.277344 72.03125 53.445312 71.960938 53.550781 71.828125 C 53.589844 71.773438 53.621094 71.714844 53.652344 71.660156 C 53.769531 71.671875 53.890625 71.683594 54.011719 71.695312 C 54.378906 71.734375 54.746094 71.773438 55.113281 71.808594 C 55.410156 71.839844 55.761719 71.796875 55.800781 72.164062 C 55.84375 72.535156 55.796875 72.929688 55.789062 73.304688 Z M 59.734375 76.902344 C 58.605469 76.871094 57.480469 76.824219 56.351562 76.761719 C 56.355469 76.558594 56.359375 76.359375 56.363281 76.15625 C 57 76.164062 57.636719 76.171875 58.273438 76.179688 C 58.675781 76.183594 59.136719 76.132812 59.519531 76.273438 C 59.609375 76.304688 59.714844 76.378906 59.789062 76.46875 C 59.773438 76.613281 59.753906 76.757812 59.734375 76.902344 Z M 55.71875 76.949219 C 54.6875 76.914062 53.65625 76.871094 52.625 76.824219 C 52.640625 76.585938 52.652344 76.347656 52.664062 76.109375 C 53.578125 76.121094 54.492188 76.132812 55.40625 76.144531 C 55.515625 76.144531 55.625 76.144531 55.734375 76.148438 C 55.730469 76.414062 55.722656 76.683594 55.71875 76.949219 Z M 44.472656 76.601562 C 44.4375 76.402344 44.410156 76.203125 44.386719 76.003906 C 44.601562 76.007812 44.8125 76.011719 45.027344 76.015625 C 45.992188 76.027344 46.957031 76.039062 47.921875 76.050781 C 47.925781 76.097656 47.929688 76.140625 47.933594 76.1875 C 47.953125 76.347656 47.984375 76.507812 48.039062 76.652344 C 47.722656 76.644531 47.410156 76.640625 47.09375 76.632812 C 46.21875 76.621094 45.347656 76.617188 44.472656 76.613281 C 44.472656 76.609375 44.472656 76.605469 44.472656 76.601562 Z M 39.453125 76.667969 C 39.441406 76.480469 39.433594 76.296875 39.421875 76.113281 C 40 76.066406 40.574219 76.015625 41.148438 75.964844 C 41.152344 75.964844 41.160156 75.964844 41.164062 75.964844 C 41.589844 75.972656 42.011719 75.976562 42.4375 75.980469 C 42.707031 75.984375 42.972656 75.988281 43.242188 75.992188 C 43.242188 75.996094 43.242188 76 43.238281 76.007812 C 43.214844 76.117188 43.183594 76.234375 43.136719 76.339844 C 42.992188 76.40625 42.824219 76.433594 42.671875 76.457031 C 42.289062 76.515625 41.902344 76.5625 41.519531 76.613281 C 41.46875 76.621094 41.417969 76.628906 41.367188 76.632812 C 40.730469 76.640625 40.09375 76.652344 39.453125 76.667969 Z M 52.074219 74.300781 C 50.882812 74.265625 49.691406 74.230469 48.496094 74.191406 C 48.476562 74.191406 48.457031 74.191406 48.4375 74.191406 C 48.421875 73.417969 48.445312 72.644531 48.484375 71.878906 C 48.496094 71.644531 48.460938 71.292969 48.730469 71.203125 C 49.011719 71.113281 49.425781 71.222656 49.710938 71.253906 C 50.292969 71.3125 50.878906 71.371094 51.460938 71.433594 C 51.597656 71.46875 51.71875 71.515625 51.8125 71.589844 C 52.085938 71.8125 52.03125 72.332031 52.042969 72.640625 C 52.0625 73.082031 52.070312 73.519531 52.074219 73.960938 C 52.078125 74.074219 52.074219 74.1875 52.074219 74.300781 Z M 52 76.773438 C 51.953125 76.78125 51.90625 76.785156 51.855469 76.792969 C 50.867188 76.75 49.878906 76.710938 48.890625 76.679688 C 48.671875 76.589844 48.589844 76.433594 48.558594 76.152344 C 48.554688 76.121094 48.554688 76.089844 48.550781 76.058594 C 49.710938 76.074219 50.875 76.089844 52.035156 76.105469 C 52.027344 76.324219 52.015625 76.550781 52 76.773438 Z M 52.058594 75.472656 C 50.871094 75.460938 49.683594 75.445312 48.492188 75.429688 C 48.476562 75.226562 48.464844 75.023438 48.457031 74.820312 C 49.660156 74.855469 50.867188 74.890625 52.070312 74.925781 C 52.070312 75.109375 52.066406 75.292969 52.058594 75.472656 Z M 47.285156 70.996094 C 47.527344 71.007812 47.769531 71.019531 48.011719 71.035156 C 47.976562 71.101562 47.945312 71.175781 47.921875 71.265625 C 47.828125 71.636719 47.847656 72.046875 47.832031 72.429688 C 47.820312 72.847656 47.8125 73.261719 47.816406 73.679688 C 47.816406 73.84375 47.820312 74.007812 47.820312 74.171875 C 46.613281 74.136719 45.402344 74.101562 44.191406 74.066406 C 44.210938 73.714844 44.230469 73.363281 44.25 73.011719 C 44.253906 72.925781 44.257812 72.839844 44.265625 72.753906 C 44.316406 72.199219 44.355469 71.648438 44.386719 71.09375 C 45.355469 71.03125 46.320312 70.996094 47.285156 70.996094 Z M 44.335938 74.695312 C 45.503906 74.730469 46.671875 74.765625 47.839844 74.800781 C 47.847656 75.007812 47.855469 75.214844 47.871094 75.421875 C 46.695312 75.40625 45.515625 75.390625 44.339844 75.378906 C 44.332031 75.152344 44.328125 74.921875 44.335938 74.695312 Z M 43.417969 74.433594 C 43.421875 74.519531 43.429688 74.605469 43.433594 74.691406 C 43.417969 74.839844 43.402344 74.984375 43.382812 75.132812 C 42.640625 75.203125 41.898438 75.273438 41.15625 75.339844 C 40.835938 75.335938 40.515625 75.332031 40.195312 75.328125 C 40.054688 75.324219 39.851562 75.347656 39.75 75.234375 C 39.683594 75.160156 39.65625 75.03125 39.640625 74.902344 C 40.902344 74.757812 42.160156 74.601562 43.417969 74.433594 Z M 52.6875 75.480469 C 52.691406 75.304688 52.695312 75.125 52.699219 74.945312 C 53.71875 74.976562 54.734375 75.007812 55.753906 75.039062 C 55.753906 75.199219 55.746094 75.359375 55.746094 75.519531 C 54.726562 75.507812 53.707031 75.496094 52.6875 75.480469 Z M 52.617188 70.648438 C 51.796875 70.578125 50.976562 70.515625 50.160156 70.464844 C 49.34375 70.410156 48.527344 70.386719 47.714844 70.378906 C 47.753906 70.214844 47.753906 70.046875 47.707031 69.882812 C 49.367188 70.039062 51.03125 70.199219 52.691406 70.355469 C 52.660156 70.453125 52.636719 70.550781 52.617188 70.648438 Z M 46.492188 69.5625 C 46.511719 69.636719 46.558594 69.695312 46.617188 69.734375 C 46.628906 69.945312 46.671875 70.148438 46.734375 70.347656 C 45.953125 70.328125 45.171875 70.335938 44.390625 70.375 C 44.390625 70.371094 44.390625 70.363281 44.390625 70.359375 C 44.6875 70.132812 44.84375 69.738281 44.773438 69.367188 C 44.765625 69.304688 44.746094 69.25 44.722656 69.195312 C 45.3125 69.320312 45.902344 69.441406 46.492188 69.5625 Z M 43.703125 71.503906 C 43.679688 71.941406 43.65625 72.382812 43.632812 72.820312 C 43.605469 73.144531 43.570312 73.46875 43.535156 73.792969 C 42.210938 73.96875 40.886719 74.132812 39.558594 74.28125 C 39.429688 73.421875 39.296875 72.5625 39.167969 71.699219 C 39.167969 71.683594 39.160156 71.671875 39.15625 71.65625 C 39.6875 71.582031 40.214844 71.511719 40.742188 71.445312 C 41.734375 71.316406 42.730469 71.214844 43.722656 71.136719 C 43.71875 71.261719 43.710938 71.382812 43.703125 71.503906 Z M 38.699219 74.378906 C 37.757812 74.480469 36.816406 74.574219 35.875 74.664062 C 35.863281 74.507812 35.855469 74.351562 35.84375 74.195312 C 35.796875 73.511719 35.75 72.828125 35.703125 72.144531 C 36.652344 72.011719 37.605469 71.875 38.554688 71.742188 C 38.554688 71.753906 38.550781 71.769531 38.550781 71.785156 C 38.601562 72.648438 38.648438 73.511719 38.699219 74.378906 Z M 27.335938 75.902344 C 29.988281 75.773438 32.636719 75.582031 35.28125 75.34375 C 35.292969 75.496094 35.308594 75.652344 35.328125 75.804688 C 32.667969 75.992188 30.003906 76.148438 27.339844 76.273438 C 27.339844 76.148438 27.335938 76.027344 27.335938 75.902344 Z M 35.917969 75.289062 C 36.785156 75.207031 37.652344 75.121094 38.519531 75.027344 C 38.589844 75.015625 38.660156 75.007812 38.730469 75 C 38.742188 75.179688 38.75 75.363281 38.761719 75.542969 C 37.828125 75.617188 36.890625 75.691406 35.957031 75.757812 C 35.9375 75.601562 35.925781 75.445312 35.917969 75.289062 Z M 43.523438 68.859375 C 43.523438 68.867188 43.523438 68.875 43.523438 68.882812 C 43.523438 68.898438 43.523438 68.914062 43.527344 68.929688 C 43.484375 68.90625 43.445312 68.882812 43.402344 68.859375 C 43.441406 68.859375 43.484375 68.859375 43.523438 68.859375 Z M 42.128906 69.507812 C 42.125 69.507812 42.125 69.503906 42.125 69.503906 C 42.128906 69.503906 42.128906 69.507812 42.128906 69.507812 Z M 30.648438 71.203125 C 30.644531 71.207031 30.640625 71.210938 30.648438 71.203125 Z M 36.039062 70.4375 C 36.035156 70.449219 36.027344 70.457031 36.019531 70.449219 C 36.011719 70.441406 36.023438 70.4375 36.039062 70.4375 Z M 36.148438 70.46875 C 36.148438 70.46875 36.148438 70.46875 36.144531 70.460938 C 36.148438 70.464844 36.152344 70.46875 36.148438 70.46875 Z M 30.132812 70.988281 C 30.128906 71.121094 30.140625 71.257812 30.164062 71.386719 C 30.222656 71.679688 30.488281 71.886719 30.792969 71.8125 C 31.03125 71.757812 31.230469 71.554688 31.269531 71.316406 C 31.296875 71.175781 31.273438 71.042969 31.222656 70.917969 C 32.628906 70.710938 34.027344 70.453125 35.414062 70.148438 C 35.441406 70.378906 35.5 70.605469 35.609375 70.789062 C 35.789062 71.09375 36.167969 71.136719 36.433594 70.917969 C 36.667969 70.730469 36.746094 70.421875 36.628906 70.148438 C 36.617188 70.125 36.605469 70.105469 36.59375 70.082031 C 38.230469 69.820312 39.855469 69.507812 41.46875 69.140625 C 41.441406 69.285156 41.441406 69.433594 41.488281 69.582031 C 41.582031 69.867188 41.867188 70.085938 42.167969 70.09375 C 42.488281 70.101562 42.757812 69.84375 42.757812 69.523438 C 42.757812 69.445312 42.742188 69.371094 42.71875 69.296875 C 43.21875 69.363281 43.671875 69.75 43.753906 70.28125 C 43.753906 70.292969 43.761719 70.300781 43.765625 70.3125 C 43.761719 70.378906 43.761719 70.441406 43.757812 70.507812 C 43.105469 70.558594 42.453125 70.617188 41.800781 70.691406 C 39.011719 71.011719 36.246094 71.484375 33.460938 71.8125 C 30.921875 72.109375 28.351562 72.277344 25.800781 72.070312 C 25.769531 71.976562 25.726562 71.890625 25.671875 71.8125 C 26.648438 71.636719 27.625 71.445312 28.59375 71.226562 C 29.105469 71.148438 29.617188 71.070312 30.132812 70.988281 Z M 27.027344 72.757812 C 27.003906 72.777344 26.980469 72.800781 26.960938 72.824219 C 26.957031 72.800781 26.953125 72.777344 26.949219 72.753906 C 26.976562 72.753906 27 72.757812 27.027344 72.757812 Z M 26.683594 76.304688 C 25.753906 76.347656 24.824219 76.382812 23.894531 76.417969 C 23.898438 76.292969 23.902344 76.167969 23.90625 76.046875 C 24.824219 76.015625 25.746094 75.980469 26.664062 75.9375 C 26.671875 76.0625 26.675781 76.183594 26.683594 76.304688 Z M 27.34375 77.132812 C 27.34375 77.054688 27.34375 76.980469 27.339844 76.902344 C 30.054688 76.777344 32.769531 76.617188 35.480469 76.421875 C 35.535156 76.550781 35.605469 76.667969 35.695312 76.773438 C 33.753906 76.84375 31.8125 76.925781 29.875 77.023438 C 29.246094 77.054688 28.613281 77.089844 27.984375 77.125 C 27.769531 77.125 27.554688 77.128906 27.34375 77.132812 Z M 55.652344 79.175781 C 55.65625 79.183594 55.660156 79.191406 55.664062 79.199219 C 55.722656 79.3125 55.726562 79.472656 55.734375 79.609375 C 54.742188 79.585938 53.75 79.566406 52.757812 79.554688 C 52.753906 79.476562 52.75 79.398438 52.746094 79.320312 C 53.429688 79.257812 54.113281 79.195312 54.792969 79.132812 C 54.796875 79.132812 54.796875 79.132812 54.800781 79.132812 C 55.082031 79.148438 55.367188 79.160156 55.652344 79.175781 Z M 59.351562 79.453125 C 59.367188 79.546875 59.386719 79.640625 59.402344 79.734375 C 58.386719 79.691406 57.371094 79.65625 56.359375 79.628906 C 56.347656 79.496094 56.335938 79.355469 56.3125 79.21875 C 56.960938 79.257812 57.613281 79.304688 58.261719 79.359375 C 58.625 79.386719 58.988281 79.421875 59.351562 79.453125 Z M 56.894531 84.726562 C 56.738281 83.238281 56.582031 81.746094 56.425781 80.257812 C 56.429688 80.257812 56.429688 80.257812 56.433594 80.257812 C 57.457031 80.285156 58.484375 80.324219 59.507812 80.367188 C 59.714844 81.695312 59.835938 83.035156 59.878906 84.378906 C 58.890625 84.546875 57.894531 84.660156 56.894531 84.726562 Z M 52.128906 79.546875 C 50.625 79.53125 49.121094 79.535156 47.613281 79.550781 C 46.550781 79.5625 45.492188 79.582031 44.429688 79.609375 C 44.40625 79.441406 44.378906 79.273438 44.351562 79.105469 C 44.472656 79.089844 44.605469 79.09375 44.71875 79.089844 C 45.625 79.050781 46.53125 79.023438 47.4375 79.007812 C 48.996094 78.984375 50.550781 78.992188 52.105469 79.03125 C 52.105469 79.03125 52.105469 79.035156 52.105469 79.039062 C 52.113281 79.207031 52.121094 79.378906 52.128906 79.546875 Z M 44.453125 88.082031 C 43.691406 88.085938 42.933594 88.074219 42.175781 88.058594 C 42.050781 87.386719 41.941406 86.714844 41.84375 86.039062 C 41.792969 85.652344 41.738281 85.261719 41.6875 84.875 C 42.492188 84.855469 43.296875 84.835938 44.101562 84.8125 C 44.132812 84.953125 44.160156 85.089844 44.195312 85.230469 C 44.261719 85.515625 44.3125 85.855469 44.40625 86.167969 C 44.410156 86.308594 44.414062 86.453125 44.417969 86.589844 C 44.375 86.640625 44.351562 86.707031 44.355469 86.792969 C 44.390625 87.222656 44.421875 87.652344 44.453125 88.082031 Z M 41.269531 86.433594 C 41.332031 86.902344 41.433594 87.386719 41.429688 87.855469 C 41.429688 87.867188 41.425781 87.871094 41.425781 87.878906 C 41.398438 87.890625 41.363281 87.886719 41.335938 87.890625 C 41.207031 87.890625 41.078125 87.882812 40.949219 87.882812 C 40.6875 87.875 40.425781 87.871094 40.164062 87.863281 C 39.710938 87.855469 39.261719 87.84375 38.808594 87.835938 C 38.730469 86.882812 38.652344 85.933594 38.578125 84.984375 C 38.574219 84.964844 38.570312 84.949219 38.570312 84.933594 C 38.804688 84.929688 39.039062 84.929688 39.273438 84.925781 C 39.871094 84.914062 40.464844 84.902344 41.0625 84.890625 C 41.113281 85.316406 41.171875 85.742188 41.234375 86.167969 C 41.246094 86.257812 41.257812 86.347656 41.269531 86.433594 Z M 41.425781 87.882812 C 41.417969 87.90625 41.40625 87.898438 41.425781 87.882812 Z M 27.335938 82.679688 C 27.316406 82.675781 27.296875 82.679688 27.277344 82.683594 C 27.210938 82.019531 27.164062 81.355469 27.136719 80.691406 C 27.125 80.410156 27.117188 80.125 27.109375 79.84375 C 27.109375 79.730469 27.089844 79.605469 27.109375 79.492188 C 27.121094 79.492188 27.132812 79.492188 27.144531 79.492188 C 27.921875 79.453125 28.699219 79.421875 29.476562 79.390625 C 29.875 79.398438 30.277344 79.40625 30.675781 79.414062 C 30.808594 80.542969 30.867188 81.675781 30.855469 82.808594 C 29.683594 82.777344 28.511719 82.734375 27.335938 82.679688 Z M 35.910156 82.890625 C 34.4375 82.886719 32.960938 82.863281 31.484375 82.828125 C 31.5 81.691406 31.4375 80.558594 31.308594 79.429688 C 32.804688 79.457031 34.296875 79.46875 35.792969 79.460938 C 35.875 80.601562 35.914062 81.746094 35.910156 82.890625 Z M 36.421875 79.457031 C 36.976562 79.453125 37.535156 79.449219 38.089844 79.441406 C 38.691406 79.445312 39.292969 79.449219 39.894531 79.457031 C 39.898438 80.589844 39.898438 81.722656 39.902344 82.855469 C 39.160156 82.871094 38.421875 82.878906 37.679688 82.886719 C 37.300781 82.886719 36.917969 82.886719 36.539062 82.886719 C 36.542969 81.742188 36.503906 80.597656 36.421875 79.457031 Z M 40.527344 81.148438 C 40.527344 80.5625 40.527344 79.976562 40.523438 79.390625 C 41.46875 79.363281 42.410156 79.335938 43.355469 79.296875 C 43.339844 79.390625 43.335938 79.484375 43.335938 79.578125 C 43.363281 80.503906 43.511719 81.445312 43.648438 82.363281 C 43.667969 82.492188 43.691406 82.617188 43.710938 82.746094 C 42.648438 82.785156 41.589844 82.816406 40.53125 82.84375 C 40.53125 82.277344 40.53125 81.714844 40.527344 81.148438 Z M 40.546875 83.472656 C 41.640625 83.449219 42.726562 83.414062 43.816406 83.371094 C 43.839844 83.511719 43.867188 83.652344 43.894531 83.792969 C 43.894531 83.835938 43.894531 83.878906 43.894531 83.921875 C 43.886719 83.992188 43.878906 84.0625 43.871094 84.132812 C 42.792969 84.132812 41.710938 84.140625 40.628906 84.136719 C 40.617188 84.136719 40.578125 84.132812 40.542969 84.128906 C 40.542969 84.085938 40.535156 84.019531 40.535156 84.007812 C 40.535156 83.929688 40.535156 83.851562 40.535156 83.777344 C 40.535156 83.675781 40.535156 83.574219 40.535156 83.472656 C 40.539062 83.472656 40.542969 83.472656 40.546875 83.472656 Z M 33.925781 83.503906 C 34.585938 83.511719 35.246094 83.515625 35.90625 83.515625 C 35.902344 83.714844 35.898438 83.917969 35.890625 84.117188 C 34.410156 84.285156 32.917969 84.320312 31.433594 84.222656 C 31.449219 83.964844 31.464844 83.710938 31.472656 83.453125 C 32.289062 83.472656 33.105469 83.492188 33.925781 83.503906 Z M 36.53125 83.515625 C 37.65625 83.515625 38.78125 83.503906 39.90625 83.484375 C 39.90625 83.625 39.90625 83.765625 39.90625 83.910156 C 39.90625 84.035156 39.910156 84.164062 39.933594 84.285156 C 38.792969 84.308594 37.652344 84.324219 36.511719 84.335938 C 36.519531 84.0625 36.527344 83.789062 36.53125 83.515625 Z M 20.234375 82.003906 C 20.53125 82.042969 20.828125 82.078125 21.121094 82.113281 C 21.449219 82.15625 21.777344 82.195312 22.105469 82.234375 C 22.386719 82.269531 22.710938 82.355469 22.996094 82.273438 C 22.996094 82.273438 23 82.273438 23 82.277344 C 22.992188 82.855469 22.980469 83.4375 22.972656 84.019531 C 21.964844 83.960938 20.957031 84.023438 19.964844 84.199219 C 19.957031 84.203125 19.953125 84.203125 19.949219 84.203125 C 19.917969 84.203125 19.886719 84.203125 19.855469 84.203125 C 19.855469 83.460938 19.796875 82.71875 19.679688 81.980469 C 19.871094 81.984375 20.054688 81.992188 20.234375 82.003906 Z M 23.597656 84.269531 C 23.609375 83.515625 23.621094 82.757812 23.632812 82.003906 C 23.636719 81.925781 23.597656 81.832031 23.53125 81.769531 C 23.671875 81.007812 23.714844 80.199219 23.605469 79.425781 C 24.554688 79.582031 25.515625 79.566406 26.476562 79.523438 C 26.457031 79.75 26.488281 79.988281 26.492188 80.203125 C 26.507812 80.84375 26.546875 81.484375 26.597656 82.125 C 26.65625 82.855469 26.742188 83.585938 26.84375 84.3125 C 26.84375 84.316406 26.847656 84.320312 26.847656 84.324219 C 26.386719 84.320312 25.921875 84.316406 25.457031 84.308594 C 24.839844 84.296875 24.21875 84.285156 23.597656 84.269531 Z M 27.769531 84.964844 C 27.835938 85.644531 27.933594 86.332031 27.964844 87.015625 C 27.964844 87.027344 27.960938 87.066406 27.964844 87.085938 C 27.945312 87.085938 27.910156 87.089844 27.902344 87.089844 C 27.734375 87.085938 27.566406 87.070312 27.402344 87.058594 C 27.132812 87.035156 26.867188 86.996094 26.605469 86.953125 C 26.59375 86.289062 26.582031 85.628906 26.570312 84.964844 C 26.570312 84.957031 26.570312 84.953125 26.570312 84.949219 C 26.96875 84.953125 27.371094 84.957031 27.769531 84.964844 Z M 27.445312 84.332031 C 27.449219 84.324219 27.449219 84.320312 27.453125 84.3125 C 27.5 83.980469 27.550781 83.648438 27.605469 83.316406 C 28.683594 83.363281 29.765625 83.40625 30.84375 83.4375 C 30.835938 83.742188 30.820312 84.050781 30.800781 84.355469 C 29.679688 84.351562 28.5625 84.34375 27.445312 84.332031 Z M 37.953125 84.945312 C 37.953125 84.957031 37.949219 84.96875 37.949219 84.984375 C 37.941406 85.835938 37.929688 86.691406 37.917969 87.546875 C 37.03125 87.640625 36.132812 87.671875 35.238281 87.632812 C 35.300781 86.773438 35.289062 85.90625 35.207031 85.046875 C 35.203125 85.019531 35.199219 84.996094 35.191406 84.972656 C 36.113281 84.96875 37.03125 84.957031 37.953125 84.945312 Z M 53.242188 84.902344 C 53.035156 83.335938 52.886719 81.761719 52.792969 80.183594 C 53.792969 80.195312 54.792969 80.214844 55.796875 80.242188 C 55.796875 80.269531 55.800781 80.296875 55.804688 80.324219 C 55.964844 81.835938 56.121094 83.347656 56.28125 84.855469 C 55.269531 84.863281 54.253906 84.875 53.242188 84.902344 Z M 55.917969 78.566406 C 55.691406 78.4375 55.410156 78.449219 55.148438 78.472656 C 55.03125 78.484375 54.910156 78.492188 54.796875 78.503906 C 52.480469 78.386719 50.160156 78.34375 47.84375 78.375 C 46.867188 78.386719 45.894531 78.414062 44.921875 78.453125 C 44.761719 78.460938 44.585938 78.457031 44.414062 78.472656 C 44.464844 78.070312 44.480469 77.664062 44.460938 77.261719 C 48.328125 77.523438 52.203125 77.6875 56.078125 77.75 C 57.117188 77.769531 58.160156 77.777344 59.199219 77.777344 C 59.261719 78.128906 59.324219 78.480469 59.386719 78.832031 C 58.234375 78.722656 57.078125 78.636719 55.917969 78.566406 Z M 59.695312 69.964844 C 58.820312 69.964844 57.941406 69.964844 57.066406 69.960938 C 56.972656 69.957031 56.878906 69.949219 56.785156 69.945312 C 57.796875 69.929688 58.808594 69.910156 59.820312 69.890625 C 59.773438 69.90625 59.730469 69.933594 59.695312 69.964844 Z M 24.519531 71.714844 C 24.535156 71.714844 24.554688 71.710938 24.570312 71.710938 C 24.570312 71.785156 24.574219 71.859375 24.578125 71.933594 C 24.421875 71.914062 24.261719 71.890625 24.105469 71.867188 C 24.070312 71.863281 24.035156 71.863281 24.003906 71.867188 C 23.984375 71.835938 23.960938 71.804688 23.933594 71.78125 C 24.128906 71.757812 24.324219 71.734375 24.519531 71.714844 Z M 24.023438 72.496094 C 24.273438 72.566406 24.523438 72.632812 24.777344 72.695312 C 24.878906 72.914062 25.007812 73.117188 25.171875 73.304688 C 25.277344 73.421875 25.511719 73.429688 25.617188 73.304688 C 25.710938 73.1875 25.777344 73.054688 25.820312 72.917969 C 26 72.953125 26.175781 72.984375 26.359375 73.011719 C 26.472656 73.773438 26.5625 74.542969 26.621094 75.3125 C 26.074219 75.335938 25.527344 75.363281 24.980469 75.382812 C 24.628906 75.394531 24.277344 75.40625 23.925781 75.417969 C 23.957031 74.445312 23.992188 73.472656 24.023438 72.496094 Z M 23.085938 76.070312 C 23.109375 76.195312 23.132812 76.320312 23.152344 76.445312 C 22.453125 76.46875 21.757812 76.492188 21.058594 76.507812 C 20.847656 76.511719 20.21875 76.46875 19.992188 76.246094 C 19.988281 76.222656 19.988281 76.199219 19.984375 76.175781 C 20.867188 76.175781 21.746094 76.144531 22.625 76.082031 C 22.777344 76.078125 22.929688 76.074219 23.085938 76.070312 Z M 27.9375 77.753906 C 31.625 77.707031 35.320312 77.804688 39.003906 77.582031 C 39.777344 77.535156 40.550781 77.46875 41.320312 77.390625 C 41.546875 77.382812 41.769531 77.375 41.992188 77.363281 C 42.3125 77.347656 42.65625 77.34375 42.960938 77.246094 C 43.25 77.246094 43.542969 77.238281 43.832031 77.238281 C 43.855469 77.695312 43.835938 78.144531 43.765625 78.59375 C 41.132812 78.550781 38.5 78.546875 35.867188 78.585938 C 33.917969 78.617188 31.96875 78.667969 30.015625 78.742188 C 29.6875 78.730469 29.359375 78.726562 29.027344 78.730469 C 28.820312 78.730469 28.609375 78.730469 28.398438 78.730469 C 28.292969 78.730469 28.191406 78.726562 28.085938 78.722656 C 26.6875 78.675781 25.285156 78.613281 23.886719 78.539062 C 23.875 78.355469 23.863281 78.171875 23.855469 77.984375 C 25.21875 77.90625 26.578125 77.828125 27.9375 77.753906 Z M 19.835938 85.078125 C 19.890625 85.011719 19.914062 84.921875 19.90625 84.828125 C 20.328125 84.835938 20.75 84.839844 21.167969 84.84375 C 21.1875 84.84375 21.207031 84.84375 21.222656 84.84375 C 21.234375 85.46875 21.246094 86.089844 21.253906 86.710938 C 20.847656 86.71875 20.441406 86.753906 20.046875 86.855469 C 19.886719 86.894531 19.730469 86.949219 19.578125 87.011719 C 19.710938 86.371094 19.796875 85.726562 19.835938 85.078125 Z M 21.882812 86.71875 C 21.871094 86.097656 21.863281 85.480469 21.851562 84.859375 C 22.378906 84.875 22.90625 84.886719 23.4375 84.898438 C 23.4375 85.226562 23.4375 85.558594 23.4375 85.886719 C 23.4375 86.054688 23.441406 86.222656 23.4375 86.394531 C 23.4375 86.480469 23.449219 86.519531 23.371094 86.558594 C 23.265625 86.613281 23.109375 86.613281 22.996094 86.632812 C 22.847656 86.652344 22.699219 86.671875 22.546875 86.691406 C 22.398438 86.707031 22.253906 86.71875 22.105469 86.726562 C 22.03125 86.722656 21.957031 86.71875 21.882812 86.71875 Z M 24.140625 86.859375 C 24.152344 86.207031 24.125 85.558594 24.066406 84.910156 C 24.691406 84.921875 25.320312 84.929688 25.949219 84.941406 C 25.949219 84.949219 25.945312 84.957031 25.945312 84.964844 C 25.941406 85.617188 25.878906 86.265625 25.761719 86.90625 C 25.539062 86.921875 25.3125 86.929688 25.089844 86.929688 C 24.773438 86.90625 24.453125 86.882812 24.140625 86.859375 Z M 28.648438 87.207031 C 28.566406 86.460938 28.480469 85.714844 28.398438 84.96875 C 29.460938 84.976562 30.519531 84.984375 31.582031 84.984375 C 31.570312 85.019531 31.5625 85.058594 31.5625 85.101562 C 31.554688 85.738281 31.550781 86.378906 31.546875 87.015625 C 31.542969 87.019531 31.542969 87.03125 31.535156 87.035156 C 31.46875 87.113281 31.222656 87.089844 31.132812 87.097656 C 30.390625 87.140625 29.644531 87.183594 28.902344 87.230469 C 28.820312 87.222656 28.734375 87.214844 28.648438 87.207031 Z M 32.171875 87.492188 C 32.171875 87.351562 32.171875 87.207031 32.175781 87.0625 C 32.191406 86.949219 32.191406 86.828125 32.191406 86.710938 C 32.191406 86.175781 32.191406 85.636719 32.191406 85.101562 C 32.191406 85.058594 32.183594 85.019531 32.167969 84.988281 C 32.976562 84.988281 33.78125 84.984375 34.585938 84.980469 C 34.582031 85 34.582031 85.023438 34.582031 85.046875 C 34.574219 85.832031 34.570312 86.621094 34.566406 87.40625 C 33.796875 87.4375 33.027344 87.46875 32.257812 87.5 C 32.226562 87.496094 32.199219 87.496094 32.171875 87.492188 Z M 59.792969 85.507812 C 59.5625 85.546875 59.332031 85.585938 59.101562 85.625 C 58.660156 85.695312 58.214844 85.765625 57.769531 85.832031 C 56.875 85.960938 55.976562 86.074219 55.078125 86.167969 C 53.292969 86.359375 51.496094 86.480469 49.699219 86.539062 C 48.816406 86.566406 47.933594 86.578125 47.054688 86.574219 C 46.601562 86.570312 46.152344 86.566406 45.703125 86.554688 C 45.546875 86.550781 45.335938 86.566406 45.210938 86.453125 C 45.101562 86.347656 45.070312 86.144531 45.035156 86 C 45.035156 85.976562 45.035156 85.949219 45.035156 85.925781 C 45.285156 85.90625 45.535156 85.890625 45.785156 85.875 C 46.160156 85.902344 46.558594 85.859375 46.894531 85.855469 C 47.84375 85.839844 48.789062 85.804688 49.734375 85.742188 C 50.425781 85.695312 51.109375 85.636719 51.796875 85.570312 C 53.128906 85.523438 54.457031 85.496094 55.789062 85.484375 C 56.679688 85.476562 57.574219 85.476562 58.464844 85.480469 C 58.921875 85.484375 59.375 85.488281 59.828125 85.496094 C 59.847656 85.496094 59.863281 85.496094 59.878906 85.496094 C 59.847656 85.5 59.816406 85.503906 59.792969 85.507812 Z M 63.789062 75.277344 C 63.785156 75.359375 63.785156 75.4375 63.785156 75.515625 C 63.210938 75.535156 62.636719 75.554688 62.0625 75.574219 C 61.761719 75.582031 61.457031 75.59375 61.152344 75.605469 C 60.984375 75.609375 60.640625 75.683594 60.535156 75.507812 C 60.511719 75.464844 60.496094 75.414062 60.484375 75.359375 C 60.484375 75.300781 60.488281 75.238281 60.488281 75.179688 C 61.589844 75.214844 62.6875 75.246094 63.789062 75.277344 Z M 60.65625 70.742188 C 61.824219 70.78125 62.996094 70.808594 64.167969 70.828125 C 63.007812 71.003906 61.839844 71.085938 60.667969 71.105469 C 60.679688 70.984375 60.675781 70.863281 60.65625 70.742188 Z M 66.429688 71.171875 C 66.402344 71.125 66.375 71.082031 66.34375 71.035156 C 66.390625 71.023438 66.441406 71.011719 66.488281 70.996094 C 66.507812 71.0625 66.523438 71.128906 66.527344 71.195312 C 66.53125 71.210938 66.527344 71.25 66.523438 71.285156 C 66.488281 71.25 66.457031 71.210938 66.429688 71.171875 Z M 67.265625 70.371094 C 67.257812 70.371094 67.25 70.371094 67.238281 70.371094 C 67.253906 70.359375 67.261719 70.359375 67.265625 70.371094 Z M 60.292969 69.242188 C 60.332031 69.246094 60.371094 69.25 60.410156 69.257812 C 58.664062 69.289062 56.917969 69.316406 55.171875 69.335938 C 53.253906 69.355469 51.328125 69.34375 49.414062 69.152344 C 49.132812 69.125 48.847656 69.09375 48.5625 69.058594 C 48.148438 68.988281 47.734375 68.914062 47.320312 68.835938 C 46.867188 68.75 46.417969 68.65625 45.96875 68.566406 C 45.363281 68.402344 44.777344 68.191406 44.21875 67.925781 C 44.050781 67.84375 43.886719 67.757812 43.726562 67.664062 C 43.609375 67.5 43.46875 67.351562 43.308594 67.222656 C 45.066406 67.25 46.820312 67.386719 48.566406 67.582031 C 52.492188 68.015625 56.375 68.75 60.292969 69.242188 Z M 44.304688 66.621094 C 43.769531 66.601562 43.234375 66.589844 42.703125 66.589844 C 42.601562 66.589844 42.492188 66.59375 42.382812 66.59375 C 42.1875 66.390625 42.015625 66.171875 41.863281 65.9375 C 42.175781 65.964844 42.492188 65.988281 42.804688 66.015625 C 43.65625 66.085938 44.507812 66.144531 45.359375 66.195312 C 46.757812 66.28125 48.15625 66.34375 49.554688 66.386719 C 51.34375 66.578125 53.132812 66.742188 54.921875 66.898438 C 54.902344 67.136719 54.878906 67.371094 54.859375 67.609375 C 54.851562 67.710938 54.894531 67.785156 54.957031 67.839844 C 51.421875 67.296875 47.878906 66.757812 44.304688 66.621094 Z M 52.800781 64.972656 C 53.0625 65.015625 53.320312 65.058594 53.582031 65.105469 C 53.839844 65.148438 54.121094 65.175781 54.359375 65.285156 C 54.753906 65.46875 54.914062 65.851562 54.960938 66.277344 C 53.789062 66.171875 52.613281 66.066406 51.441406 65.953125 C 51.429688 65.558594 51.414062 65.160156 51.398438 64.765625 C 51.867188 64.828125 52.332031 64.898438 52.800781 64.972656 Z M 59.179688 61.011719 C 59.183594 61.015625 59.1875 61.019531 59.195312 61.023438 C 59.1875 61.015625 59.179688 61.011719 59.179688 61.011719 Z M 41.964844 55.34375 C 42.53125 55.566406 43.097656 55.796875 43.667969 56.019531 C 45.984375 56.917969 48.332031 57.726562 50.707031 58.449219 C 52.757812 59.070312 54.828125 59.628906 56.917969 60.117188 C 54.855469 60.109375 52.789062 60.066406 50.734375 59.902344 C 50.695312 59.882812 50.648438 59.871094 50.59375 59.871094 C 50.507812 59.871094 50.425781 59.871094 50.339844 59.871094 C 48.671875 59.726562 47.011719 59.492188 45.375 59.117188 C 44.292969 58.871094 43.230469 58.566406 42.1875 58.1875 C 41.867188 58.070312 41.546875 57.941406 41.21875 57.851562 C 41.199219 57.824219 41.175781 57.800781 41.148438 57.78125 C 41.152344 57.238281 41.179688 56.699219 41.261719 56.164062 C 41.3125 55.832031 41.386719 55.5 41.4375 55.167969 C 41.617188 55.210938 41.792969 55.277344 41.964844 55.34375 Z M 36.957031 56.898438 C 38.066406 56.421875 39.144531 55.894531 40.242188 55.382812 C 40.421875 55.296875 40.613281 55.21875 40.808594 55.171875 C 40.808594 55.183594 40.804688 55.191406 40.804688 55.203125 C 40.652344 56.023438 40.535156 56.832031 40.523438 57.667969 C 40.523438 57.695312 40.523438 57.71875 40.523438 57.746094 C 40.015625 57.730469 39.523438 57.894531 39.050781 58.074219 C 38.6875 58.214844 38.324219 58.347656 37.957031 58.480469 C 37.953125 58.480469 37.945312 58.484375 37.9375 58.484375 C 37.890625 58.472656 37.839844 58.472656 37.792969 58.488281 C 36.417969 58.886719 35.0625 59.335938 33.71875 59.828125 C 33.324219 59.933594 32.929688 60.039062 32.535156 60.136719 C 32.125 60.238281 31.714844 60.332031 31.300781 60.421875 C 30.359375 60.582031 29.417969 60.710938 28.46875 60.808594 C 28.394531 60.703125 28.273438 60.636719 28.136719 60.691406 C 27.9375 60.773438 27.734375 60.855469 27.535156 60.9375 C 26.71875 61.105469 25.863281 61.316406 25.070312 60.957031 C 24.941406 60.902344 24.8125 60.832031 24.679688 60.765625 C 28.886719 59.886719 33 58.589844 36.957031 56.898438 Z M 23.417969 61.402344 C 23.421875 61.402344 23.398438 61.417969 23.378906 61.433594 C 23.382812 61.410156 23.378906 61.390625 23.382812 61.375 C 23.402344 61.328125 23.433594 61.289062 23.472656 61.257812 C 23.480469 61.261719 23.484375 61.261719 23.492188 61.265625 C 23.476562 61.3125 23.453125 61.359375 23.417969 61.402344 Z M 27.84375 62.382812 C 27.84375 62.386719 27.84375 62.386719 27.84375 62.382812 Z M 31.125 62.378906 C 33.042969 62.199219 34.933594 61.753906 36.84375 61.519531 C 38.109375 61.363281 39.375 61.324219 40.636719 61.347656 C 40.65625 61.808594 40.671875 62.269531 40.691406 62.730469 C 40.695312 62.882812 40.703125 63.035156 40.707031 63.1875 C 40.675781 63.183594 40.640625 63.183594 40.601562 63.1875 C 40.097656 63.257812 39.589844 63.328125 39.082031 63.398438 C 38.976562 63.082031 38.824219 62.777344 38.566406 62.558594 C 38.21875 62.265625 37.71875 62.191406 37.378906 62.550781 C 37.101562 62.84375 37.042969 63.292969 37.011719 63.6875 C 36.53125 63.753906 36.050781 63.820312 35.570312 63.890625 C 35.5625 63.832031 35.554688 63.773438 35.542969 63.714844 C 35.460938 63.265625 35.34375 62.742188 34.933594 62.476562 C 34.480469 62.183594 33.941406 62.40625 33.625 62.785156 C 33.289062 63.191406 33.113281 63.726562 33.03125 64.242188 C 32.421875 64.328125 31.816406 64.410156 31.210938 64.496094 C 31.25 63.800781 31.144531 63.070312 31.125 62.378906 Z M 30.25 65.636719 C 30.054688 65.945312 29.769531 66.1875 29.449219 66.347656 C 28.925781 66.398438 28.398438 66.4375 27.871094 66.464844 C 27.859375 66.167969 27.851562 65.871094 27.898438 65.585938 C 28.75 65.46875 29.597656 65.351562 30.449219 65.230469 C 30.398438 65.371094 30.332031 65.507812 30.25 65.636719 Z M 27.605469 67.988281 C 27.78125 67.726562 27.847656 67.441406 27.871094 67.148438 C 28.453125 67.285156 29.070312 67.207031 29.613281 66.960938 C 32.53125 66.675781 35.421875 66.097656 38.339844 65.808594 C 39.089844 65.734375 39.835938 65.683594 40.585938 65.660156 C 40.605469 65.90625 40.640625 66.152344 40.722656 66.375 C 40.761719 66.476562 40.808594 66.570312 40.863281 66.648438 C 40.753906 66.648438 40.644531 66.644531 40.535156 66.644531 C 39.816406 66.632812 39.097656 66.640625 38.382812 66.671875 C 36.949219 66.726562 35.515625 66.863281 34.09375 67.046875 C 31.847656 67.34375 29.625 67.765625 27.410156 68.226562 C 27.480469 68.15625 27.546875 68.078125 27.605469 67.988281 Z M 20.222656 80.210938 C 20.886719 79.5625 21.941406 78.734375 22.914062 79.144531 C 22.933594 79.25 22.949219 79.355469 22.964844 79.460938 C 22.96875 79.921875 22.972656 80.386719 22.976562 80.851562 C 22.976562 81 22.988281 81.152344 22.972656 81.304688 C 22.972656 81.308594 22.972656 81.308594 22.972656 81.3125 C 22.964844 81.363281 22.960938 81.410156 22.949219 81.457031 C 22.945312 81.46875 22.941406 81.476562 22.941406 81.484375 C 21.726562 81.226562 20.484375 81.105469 19.246094 81.132812 C 19.589844 80.84375 19.90625 80.519531 20.222656 80.210938 Z M 43.363281 89.613281 C 39.605469 89.726562 35.84375 89.644531 32.105469 89.265625 C 30.203125 89.074219 28.316406 88.800781 26.441406 88.445312 C 24.609375 88.101562 22.78125 87.699219 20.914062 87.605469 C 20.558594 87.589844 20.203125 87.582031 19.847656 87.582031 C 20.339844 87.390625 20.878906 87.335938 21.414062 87.335938 C 21.464844 87.367188 21.519531 87.382812 21.578125 87.382812 C 21.753906 87.375 21.929688 87.367188 22.109375 87.355469 C 22.746094 87.382812 23.382812 87.425781 24.015625 87.472656 C 24.367188 87.523438 24.71875 87.550781 25.070312 87.554688 C 26.097656 87.628906 27.128906 87.710938 28.160156 87.796875 C 28.214844 87.855469 28.289062 87.890625 28.378906 87.886719 C 28.554688 87.875 28.726562 87.867188 28.902344 87.855469 C 29.8125 87.929688 30.722656 88.003906 31.636719 88.078125 C 31.648438 88.082031 31.65625 88.082031 31.667969 88.082031 C 31.722656 88.121094 31.789062 88.148438 31.855469 88.144531 C 31.988281 88.140625 32.121094 88.132812 32.253906 88.128906 C 35.386719 88.378906 38.523438 88.597656 41.664062 88.679688 C 41.714844 88.78125 41.835938 88.859375 41.945312 88.851562 C 42.789062 88.804688 43.632812 88.757812 44.472656 88.710938 C 44.613281 88.710938 44.75 88.710938 44.886719 88.710938 C 47.105469 88.691406 49.320312 88.574219 51.527344 88.363281 C 52.621094 88.257812 53.710938 88.136719 54.804688 88.019531 C 55.328125 87.960938 55.851562 87.890625 56.378906 87.855469 C 56.875 87.820312 57.328125 87.855469 57.757812 88.121094 C 57.902344 88.210938 58.042969 88.300781 58.183594 88.386719 C 57.011719 88.527344 55.839844 88.664062 54.667969 88.789062 C 50.910156 89.195312 47.140625 89.503906 43.363281 89.613281 Z M 63.414062 87.710938 C 63.421875 87.707031 63.429688 87.703125 63.433594 87.695312 C 63.480469 87.6875 63.523438 87.675781 63.570312 87.664062 C 64.03125 87.574219 64.519531 87.453125 64.992188 87.441406 C 65.058594 87.441406 65.128906 87.441406 65.203125 87.445312 C 65.203125 87.453125 65.203125 87.460938 65.203125 87.472656 C 64.605469 87.550781 64.011719 87.632812 63.414062 87.710938 Z M 63.414062 87.710938 " fill-opacity="1" fill-rule="nonzero"/></g></svg>