<svg xmlns="http://www.w3.org/2000/svg" xmlns:xlink="http://www.w3.org/1999/xlink" width="250" zoomAndPan="magnify" viewBox="0 0 187.5 149.999998" height="200" preserveAspectRatio="xMidYMid meet" version="1.0"><defs><g/><clipPath id="6dc077c62e"><path d="M 72.140625 64.34375 L 84.859375 64.34375 L 84.859375 77.058594 L 72.140625 77.058594 Z M 72.140625 64.34375 " clip-rule="nonzero"/></clipPath></defs><g fill="#e4e4e7" fill-opacity="1"><g transform="translate(33.012269, 80.800923)"><g><path d="M 18.703125 0.925781 C 28.496094 0.925781 34.945312 -2.984375 34.902344 -8.707031 C 34.902344 -13.621094 30.992188 -16.203125 21.84375 -17.25 L 15.839844 -18.015625 C 11.730469 -18.5 9.957031 -19.386719 9.996094 -20.917969 C 9.996094 -23.015625 13.261719 -24.382812 17.816406 -24.425781 C 22.53125 -24.425781 27.164062 -22.773438 29.867188 -20.3125 L 32.644531 -24.949219 C 29.542969 -27.769531 23.941406 -29.625 17.773438 -29.625 C 8.464844 -29.625 2.097656 -26.199219 2.054688 -20.355469 C 2.054688 -15.597656 5.644531 -13.179688 13.945312 -12.210938 L 19.992188 -11.40625 C 24.90625 -10.800781 27.003906 -9.714844 27.003906 -8.019531 C 27.003906 -5.925781 23.902344 -4.515625 19.105469 -4.515625 C 13.019531 -4.515625 6.8125 -6.890625 4.070312 -10.238281 L 0.804688 -5.480469 C 4.070312 -1.734375 11.285156 0.925781 18.703125 0.925781 Z M 18.703125 0.925781 "/></g></g></g><g fill="#e4e4e7" fill-opacity="1"><g transform="translate(68.39936, 80.800923)"><g/></g></g><g fill="#e4e4e7" fill-opacity="1"><g transform="translate(78.635647, 80.800923)"><g/></g></g><g fill="#e4e4e7" fill-opacity="1"><g transform="translate(88.876351, 80.800923)"><g><path d="M 17.410156 -21.359375 C 13.621094 -21.359375 10.359375 -19.304688 8.828125 -15.960938 L 8.785156 -15.960938 L 7.820312 -20.636719 L 1.613281 -20.636719 L 1.613281 0 L 8.988281 0 L 8.988281 -9.109375 C 8.988281 -13.703125 11.082031 -16.644531 14.507812 -16.644531 C 16.886719 -16.644531 18.582031 -14.710938 18.78125 -11.488281 L 25.472656 -12.898438 C 25.109375 -18.136719 21.964844 -21.359375 17.410156 -21.359375 Z M 17.410156 -21.359375 "/></g></g></g><g fill="#e4e4e7" fill-opacity="1"><g transform="translate(114.547725, 80.800923)"><g><path d="M 11.367188 0.726562 C 17.289062 0.726562 22.167969 -1.410156 24.183594 -4.636719 L 24.222656 -4.636719 L 24.261719 -4.109375 C 24.585938 -1.128906 27.164062 0.726562 31.15625 0.726562 C 33.976562 0.726562 36.515625 -0.121094 37.765625 -1.449219 L 36.074219 -4.917969 C 35.46875 -4.273438 34.5 -3.828125 33.53125 -3.828125 C 32.242188 -3.828125 31.476562 -4.59375 31.476562 -5.761719 L 31.476562 -13.542969 C 31.476562 -18.539062 25.554688 -21.359375 17.25 -21.359375 C 10.882812 -21.359375 4.472656 -19.425781 1.046875 -16.566406 L 3.265625 -12.617188 C 6.570312 -15.195312 12.132812 -16.929688 17.289062 -16.929688 C 21.402344 -16.929688 24.261719 -15.757812 24.261719 -14.269531 C 24.261719 -13.703125 23.699219 -13.339844 22.8125 -13.261719 L 13.984375 -12.496094 C 5.441406 -11.730469 0.804688 -9.070312 0.804688 -5.078125 C 0.804688 -1.328125 4.675781 0.726562 11.367188 0.726562 Z M 13.703125 -3.910156 C 10.074219 -3.910156 8.183594 -4.714844 8.183594 -6.207031 C 8.183594 -7.65625 10.316406 -8.542969 14.507812 -8.867188 L 24.140625 -9.671875 L 24.140625 -9.148438 C 24.140625 -6.167969 19.828125 -3.910156 13.703125 -3.910156 Z M 13.703125 -3.910156 "/></g></g></g><g clip-path="url(#6dc077c62e)"><path fill="#ffffff" d="M 84.960938 70.753906 C 84.960938 74.292969 82.09375 77.164062 78.550781 77.164062 C 75.011719 77.164062 72.140625 74.292969 72.140625 70.753906 C 72.140625 67.210938 75.011719 64.34375 78.550781 64.34375 C 82.09375 64.34375 84.960938 67.210938 84.960938 70.753906 Z M 84.960938 70.753906 " fill-opacity="1" fill-rule="evenodd"/></g><path fill="#9b0e0e" d="M 81.757812 70.753906 C 81.757812 72.523438 80.320312 73.957031 78.550781 73.957031 C 76.78125 73.957031 75.347656 72.523438 75.347656 70.753906 C 75.347656 68.984375 76.78125 67.546875 78.550781 67.546875 C 80.320312 67.546875 81.757812 68.984375 81.757812 70.753906 Z M 81.757812 70.753906 " fill-opacity="1" fill-rule="evenodd"/></svg>